<svg viewBox="-20 0 512 512.00134" xmlns="http://www.w3.org/2000/svg"><g fill="#bce0f9"><path d="m365.941406 223.425781 98.097656.25.066407-1.933593c.191406-5.214844.363281-10.429688.511719-15.636719l.0625-2.121094-99.027344 3.035156zm0 0"/><path d="m366.5 255.195312c.222656 12.632813.476562 26.945313 7.265625 38.460938 6.871094 11.675781 20.949219 20.066406 37.660156 22.453125 3.996094.566406 8.117188.84375 12.601563.84375 11.335937 0 22.804687-1.820313 32.925781-3.429687l1.542969-.242188.132812-1.5625c2.417969-28.234375 4.214844-57.148438 5.335938-85.941406l.082031-2.070313-98.105469-.25zm85.597656 50.765626.019532-2.003907-.019532 2.035157-11.832031.378906zm-24.066406.839843c-.035156-.003906-.074219-.003906-.109375-.007812l-7.222656-.738281zm-34.207031-8.765625.015625.003906c2.148437 3.191407 5.316406 5.703126 8.910156 7.101563-3.609375-1.375-6.78125-3.886719-8.933594-7.101563.003906-.003906.003906-.003906.007813-.003906zm-12.40625-19.398437.003906.011719c.238281 4.109374 2.078125 8.105468 5.023437 10.980468-2.976562-2.859375-4.820312-6.859375-5.03125-10.992187zm-4.039063-24.378907.007813 2.019532 1.5625 11.425781-1.570313-11.441406zm-.980468-20.078124.078124 11.011718-.101562-11.03125-.015625-2zm0 0"/><path d="m318.484375 24.722656c-8.839844-1.050781-17.832031-1.585937-26.726563-1.585937-7.058593 0-14.195312.335937-21.207031 1.003906l-1.859375.175781.417969 16.363282c.027344.988281.0625 2.21875.699219 3.121093 1.058594 1.542969 3.234375 1.542969 3.949218 1.542969.714844 0 1.371094-.070312 1.597657-.09375l45.214843-4.261719-.363281-16.058593zm0 0"/><path d="m289.203125 179.503906c.933594.265625 1.886719.398438 2.832031.398438 1.578125 0 3.09375-.378906 4.398438-1.097656 3.335937-1.863282 5.082031-5.191407 4.660156-8.90625-.457031-4.097657-3.421875-7.625-7.371094-8.777344-.808594-.238282-1.632812-.359375-2.453125-.359375-2.617187 0-5.023437 1.203125-6.78125 3.386719-2.539062 3.164062-2.953125 7.449218-1.050781 10.929687 1.152344 2.085937 3.246094 3.695313 5.765625 4.425781zm0 0"/><path d="m293.71875 206.398438c-.808594-.230469-1.628906-.351563-2.441406-.351563-2.625 0-5.039063 1.207031-6.785156 3.386719-2.550782 3.160156-2.964844 7.445312-1.054688 10.921875 1.160156 2.101562 3.261719 3.714843 5.765625 4.429687.941406.265625 1.898437.402344 2.847656.402344 1.578125 0 3.09375-.382812 4.382813-1.101562 3.339844-1.863282 5.082031-5.191407 4.664062-8.898438-.460937-4.101562-3.425781-7.632812-7.378906-8.789062zm0 0"/><path d="m289.203125 270.074219c.933594.265625 1.886719.398437 2.832031.398437 1.578125 0 3.09375-.378906 4.398438-1.097656 3.335937-1.863281 5.082031-5.195312 4.664062-8.90625-.460937-4.097656-3.425781-7.625-7.375-8.777344-.808594-.238281-1.632812-.359375-2.453125-.359375-2.617187 0-5.023437 1.203125-6.78125 3.386719-2.539062 3.164062-2.957031 7.449219-1.050781 10.929688 1.152344 2.082031 3.25 3.695312 5.765625 4.425781zm0 0"/><path d="m293.714844 296.96875c-.804688-.230469-1.625-.351562-2.4375-.351562-2.625 0-5.039063 1.203124-6.785156 3.386718-2.550782 3.160156-2.964844 7.449219-1.054688 10.921875 1.160156 2.101563 3.261719 3.714844 5.753906 4.425781.941406.273438 1.902344.410157 2.855469.410157 1.578125 0 3.09375-.382813 4.386719-1.105469 3.339844-1.863281 5.082031-5.191406 4.664062-8.898438-.460937-4.101562-3.425781-7.632812-7.382812-8.789062zm0 0"/><path d="m293.722656 342.261719c-.808594-.238281-1.632812-.359375-2.453125-.359375-2.617187 0-5.023437 1.203125-6.78125 3.386718-2.539062 3.164063-2.957031 7.449219-1.050781 10.929688 1.152344 2.085938 3.246094 3.695312 5.765625 4.425781.933594.265625 1.886719.398438 2.835937.398438 1.574219 0 3.089844-.375 4.394532-1.09375 3.335937-1.867188 5.082031-5.195313 4.664062-8.910157-.460937-4.097656-3.425781-7.625-7.375-8.777343zm0 0"/><path d="m120.242188 204.019531.164062 19.800781 94.480469-.503906.050781.035156-.019531.011719-94.515625.488281.75 89.632813 1.691406.253906c14.089844 2.117188 26.324219 3.1875 36.359375 3.1875 5.003906 0 9.476563-.273437 13.289063-.816406 16.714843-2.386719 30.796874-10.777344 37.671874-22.453125 6.800782-11.535156 7.042969-25.839844 7.253907-38.460938l.53125-30.101562.105469-3.726562-.039063.027343.257813-14.371093zm48.1875 101.441407-13.351563 1.328124c-.046875 0-.082031-.003906-.101563-.019531l13.449219-1.339843.019531-2zm11.777343-.351563c3.597657-1.363281 6.765625-3.875 8.914063-7.058594 0-.007812.007812-.015625.023437-.015625l.019531.023438c-2.164062 3.191406-5.335937 5.707031-8.957031 7.050781zm16.296875-15.496094c2.960938-2.847656 4.800782-6.84375 5.054688-10.976562h.003906l.019531.015625c-.242187 4.117187-2.085937 8.117187-5.078125 10.960937zm7.484375-21.914062 1.605469-11.4375.023438.011719zm2.46875-22.507813.132813-11.03125.019531.019532zm0 0"/></g><path d="m370.457031 31.761719c.207031-8.085938-.53125-10.488281-1.707031-11.609375l-.164062-.15625-.195313-.113282c-.425781-.253906-.921875-.386718-1.433594-.386718-1.605469 0-3.765625 1.003906-8.625 8.285156l-.675781 1.003906c-5.765625 8.4375-50.976562 79.027344-60.4375 94.007813l-1.035156 1.636719 51.914062 35.253906c1.714844 1.164062 3.53125 2.304687 5.183594 2.304687.230469 0 .449219-.023437.671875-.066406 1-.207031 1.882813-.886719 2.628906-2.023437.835938-1.277344 1.496094-3.132813 2.023438-5.671876 4.363281-21.128906 7.5625-42.726562 9.503906-64.195312 1.851563-20.480469 2.609375-38.777344 2.320313-55.929688-.011719-.574218.003906-1.296874.023437-2.113281zm0 0" fill="#4996f2"/><path d="m273.726562 45.378906c-1.929687 0-3.21875-.507812-3.945312-1.558594-.648438-.9375-.675781-2.121093-.703125-3.171874l-.425781-16.34375-2.167969.246093c-10.164063 1.152344-20.308594 3.011719-30.160156 5.519531l-2.707031.691407 1.527343 2.339843c7.023438 10.773438 20.011719 30.96875 29 44.988282 7.492188 11.660156 14.796875 23.078125 20.234375 31.601562l8.171875 12.867188 1.6875-2.667969c1.570313-2.480469 3.789063-5.976563 6.476563-10.195313 5.4375-8.527343 12.75-19.945312 20.226562-31.605468 9.398438-14.640625 21.898438-34.066406 28.804688-44.679688l.085937-.140625.007813.011719 1.835937-2.820312c1.265625-1.945313 2.148438-3.277344 2.65625-4.003907l.609375-.925781c1.039063-1.554688 2.609375-3.902344 4.5625-5.980469l2.144532-2.28125-2.96875-.988281c-20.402344-6.777344-42.078126-10.214844-64.425782-10.214844-22.589844 0-45.332031 3.511719-67.601562 10.433594l-3.023438.941406 2.148438 2.324219c1.886718 2.039063 3.4375 4.375 4.390625 5.808594 0 0 .53125.777343.625.910156.386719.5625 1.015625 1.523437 1.847656 2.792969l.960937 1.472656 1.394532-.363281c18.503906-4.832031 37.613281-7.28125 56.796875-7.28125 19.0625 0 38.050781 2.417969 56.425781 7.1875 0 0 .007812.007812.019531.027343l.003907.007813-.03125-.003906c-8.421876-2.183594-17.054688-3.890625-25.648438-5.074219l-2.324219-.320312.355469 16.089843-45.292969 4.277344c-.4375.035156-.980469.082031-1.574219.082031zm0 0" fill="#4996f2"/><path d="m274.800781 138.921875-.445312 254.933594 2.019531-.015625c9.886719-.070313 20.074219-.226563 30.269531-.46875l1.949219-.046875.445312-255.253907-16.488281-11.195312zm21.648438 221.046875c-1.300781.722656-2.828125 1.101562-4.410157 1.101562-.957031 0-1.914062-.136718-2.847656-.402343-2.519531-.726563-4.625-2.34375-5.78125-4.4375-1.90625-3.476563-1.496094-7.78125 1.050782-10.960938 1.726562-2.15625 4.214843-3.394531 6.824218-3.394531.816406 0 1.636719.121094 2.441406.355469 3.96875 1.15625 6.941407 4.695312 7.402344 8.800781.417969 3.726562-1.332031 7.070312-4.679687 8.9375zm-11.992188-59.988281c1.730469-2.152344 4.226563-3.390625 6.839844-3.390625.8125 0 1.632813.117187 2.429687.347656 3.96875 1.160156 6.941407 4.695312 7.402344 8.804688.417969 3.734374-1.332031 7.074218-4.6875 8.941406-1.292968.722656-2.816406 1.105468-4.402344 1.105468-.957031 0-1.914062-.136718-2.847656-.402343-2.519531-.722657-4.625-2.34375-5.78125-4.4375-1.90625-3.476563-1.496094-7.78125 1.046875-10.96875zm11.996094-30.582031c-1.304687.722656-2.832031 1.101562-4.414063 1.101562-.957031 0-1.914062-.136719-2.847656-.402344-2.519531-.722656-4.625-2.34375-5.78125-4.4375-1.90625-3.480468-1.496094-7.78125 1.050782-10.957031 1.726562-2.160156 4.214843-3.398437 6.820312-3.398437.820312 0 1.640625.121093 2.445312.355468 3.96875 1.15625 6.941407 4.695313 7.402344 8.804688.417969 3.722656-1.332031 7.066406-4.675781 8.933594zm-11.996094-59.984376c1.730469-2.15625 4.226563-3.394531 6.839844-3.394531.8125 0 1.632813.117188 2.429687.351563 3.96875 1.15625 6.941407 4.695312 7.402344 8.800781.417969 3.734375-1.332031 7.078125-4.6875 8.941406-1.292968.726563-2.816406 1.105469-4.402344 1.105469-.957031 0-1.914062-.136719-2.851562-.402344-2.515625-.722656-4.621094-2.339844-5.777344-4.4375-1.90625-3.476562-1.496094-7.78125 1.046875-10.964844zm16.675781-39.519531c.414063 3.722657-1.335937 7.066407-4.679687 8.9375-1.304687.71875-2.832031 1.097657-4.414063 1.097657-.957031 0-1.914062-.132813-2.847656-.398438-2.519531-.722656-4.625-2.34375-5.78125-4.441406-1.90625-3.476563-1.496094-7.777344 1.050782-10.957032 1.726562-2.15625 4.214843-3.394531 6.824218-3.394531.816406 0 1.636719.117188 2.441406.351563 3.96875 1.15625 6.945313 4.695312 7.40625 8.804687zm0 0" fill="#4996f2"/><path d="m287.878906 122.792969c-9.832031-15.546875-54.800781-85.757813-60.433594-94l-.671874-.992188c-4.859376-7.277343-7.027344-8.28125-8.644532-8.28125-.488281 0-.957031.121094-1.402344.355469l-.246093.132812-.199219.191407c-.910156.878906-1.867188 2.566406-1.652344 11.574219.03125.964843.046875 1.726562.03125 2.324218-.285156 17.265625.476563 35.5625 2.328125 55.933594 1.949219 21.554688 5.148438 43.152344 9.5 64.195312.988281 4.761719 2.515625 7.28125 4.679688 7.699219.195312.035157.410156.054688.628906.054688 1.671875 0 3.507813-1.148438 5.246094-2.324219l51.871093-35.230469zm0 0" fill="#4996f2"/><path d="m455.859375 55.804688c-6.902344-11.429688-19.597656-20.027344-35.75-24.210938-13.058594-3.390625-27.019531-3.675781-39.078125-3.675781-1.496094 0-2.992188.007812-4.480469.011719l-1.964843.007812-.027344 1.964844c-.011719.679687-.019532 1.324218-.039063 1.960937l-.007812.207031c-.015625.757813-.035157 1.421876-.023438 1.953126.289063 17.386718-.472656 35.828124-2.332031 56.375-.984375 10.789062-2.289062 21.714843-3.878906 32.480468-1.566406 10.621094-3.484375 21.445313-5.699219 32.167969-.492187 2.40625-1.996094 9.722656-7.859375 10.859375-.492188.097656-.980469.144531-1.453125.144531-3.027344 0-5.707031-1.820312-7.496094-3.035156l-36.707031-24.925781-.4375 255.234375 2.058594-.054688c28.304687-.765625 56.652344-2.230469 84.257812-4.355469 18-1.390624 36.546875-3.792968 48.167969-16.269531 10.105469-10.855469 12.34375-26.46875 13.910156-42.863281.1875-1.976562.363281-3.949219.542969-5.929688l.582031-6.394531-2.539062.398438c-10.609375 1.667969-21.003907 3.164062-31.527344 3.164062-4.679687 0-9-.289062-13.21875-.886719-18.191406-2.597656-32.988281-11.496093-40.601563-24.417968-7.316406-12.410156-7.59375-27.90625-7.824218-40.441406l-.878906-50.1875c-.019532-1.105469.867187-2.03125 1.972656-2.066407l101.261718-3.105469.046876-1.894531c.792968-33.472656.691406-67.140625-.300782-100.070312-.488281-16.003907-1.476562-30.222657-8.675781-42.144531zm0 0" fill="#5bd0fc"/><path d="m231.816406 166.050781c-.464844 0-.949218-.046875-1.4375-.144531-5.234375-1.015625-6.996094-6.671875-7.871094-10.859375-4.386718-21.234375-7.605468-42.984375-9.570312-64.648437-1.859375-20.585938-2.628906-39.011719-2.339844-56.320313.011719-.199219.011719-.402344-.003906-.632813l-.121094-1.753906-1.753906-.105468c-6.960938-.429688-13.769531-.8125-20.542969-.8125-8.96875 0-16.675781.699218-23.558593 2.140624-16.308594 3.410157-29.734376 11.851563-36.835938 23.164063-8.667969 13.824219-8.515625 31.980469-8.394531 46.570313l.816406 97.304687 100.1875 3.066406c1.109375.035157 1.996094.960938 1.976563 2.066407l-.882813 50.21875c-.226563 12.46875-.503906 27.984374-7.820313 40.410156-7.621093 12.921875-22.417968 21.820312-40.597656 24.414062-3.980468.566406-8.636718.851563-13.832031.851563-9.949219 0-21.976563-1.019531-35.738281-3.039063l-2.308594-.339844.140625 16.925782c.132813 15.890625.996094 31.035156 9.992187 41.617187 10.695313 12.597657 29.445313 14.582031 46.183594 15.453125 29.097656 1.519532 58.667969 2.289063 87.890625 2.289063 2.3125 0 4.628907-.007813 6.941407-.015625l1.988281-.007813.4375-254.914062-35.4375 24.066406c-1.777344 1.207031-4.46875 3.035156-7.507813 3.035156zm0 0" fill="#5bd0fc"/><path d="m358.144531 428.835938c-40.332031 3.101562-81.605469 4.765624-122.675781 4.945312l-1.988281.007812-.054688 33.496094 2.054688-.054687c28.097656-.75 56.449219-2.214844 84.261719-4.355469 18.011718-1.394531 36.570312-3.792969 48.171874-16.273438 4.136719-4.441406 7.230469-10.042968 9.460938-17.121093l.980469-3.109375-3.214844.535156c-5.910156.988281-11.910156 1.53125-16.996094 1.929688zm0 0" fill="#5fc980"/><path d="m231.449219 433.800781-3.28125.007813c-8.570313 0-17.628907-.070313-26.929688-.21875l-2.027343-.03125-.058594 34.253906 2.019531-.011719c9.832031-.066406 20.019531-.226562 30.273437-.472656l1.949219-.042969.058594-33.484375zm0 0" fill="#5fc980"/><path d="m197.214844 433.53125c-18.984375-.351562-38.167969-1.023438-57.023438-2.007812-17.582031-.917969-37.324218-3.054688-49.070312-16.878907-4.128906-4.847656-6.96875-10.777343-8.675782-18.136719l-.425781-1.792968-1.945312.285156c-11.644531-.101562-22.496094-1.640625-31.761719-3.074219l-2.324219-.363281.140625 16.9375c.132813 15.882812.996094 31.019531 9.996094 41.617188 10.707031 12.585937 29.449219 14.570312 46.179688 15.441406 28.925781 1.519531 58.472656 2.285156 87.824218 2.285156 2.335938 0 4.671875-.003906 7.007813-.011719l1.988281-.007812.058594-34.257813zm0 0" fill="#5fc980"/><path d="m79.066406 390.910156 2.289063.039063-.269531-2.277344c-.738282-6.152344-.882813-12.671875-.925782-18.238281l-.765625-91.523438-1.925781-.058594c-3.800781-.109374-7.480469-.210937-11.117188-.304687l-4.953124-.132813c-4.679688-.117187-9.382813-.234374-14.277344-.382812l-2.078125-.0625.910156 109.472656 1.679687.265625c9.722657 1.519531 20.160157 3.019531 31.433594 3.203125zm0 0" fill="#5fc980"/><path d="m61.796875 274.359375c5.070313.128906 10.15625.269531 15.484375.421875l2.074219.058594-1.136719-136.296875c-.070312-8.179688-.148438-17.453125 1.277344-26.636719l.472656-3.066406-2.988281.832031c-11.984375 3.347656-17.417969 9.234375-24.398438 20.367187-8.667969 13.824219-8.515625 31.976563-8.394531 46.566407l.816406 97.3125 1.929688.050781c5.101562.140625 9.984375.269531 14.863281.390625zm0 0" fill="#5fc980"/><path d="m395.253906 392.964844c-40.046875 3.085937-80.992187 4.746094-121.695312 4.9375l-1.988282.007812-.046874 31.285156 2.058593-.054687c28.300781-.765625 56.644531-2.230469 84.25-4.355469 18.007813-1.390625 36.558594-3.792968 48.183594-16.273437 3.679687-3.964844 6.519531-8.824219 8.683594-14.851563l1.15625-3.214844-3.371094.5625c-6.050781 1.015626-12.105469 1.558594-17.230469 1.957032zm0 0" fill="#ed6d66"/><path d="m269.164062 397.921875c-1.292968.011719-2.589843.019531-3.886718.019531-8.371094 0-17.101563-.066406-25.949219-.199218l-2.027344-.03125-.054687 32 2.015625-.011719c9.917969-.058594 20.101562-.21875 30.277343-.46875l1.945313-.050781.058594-31.273438zm0 0" fill="#ed6d66"/><path d="m235.304688 397.671875c-19.398438-.339844-38.914063-1.019531-58.011719-2.019531-17.578125-.917969-37.316407-3.054688-49.0625-16.867188-4.519531-5.316406-7.511719-11.953125-9.148438-20.289062l-.3125-1.589844-1.617187-.027344c-10.820313-.171875-21.171875-1.566406-30.75-3.046875l-2.324219-.359375.140625 16.925782c.132812 15.890624 1 31.03125 9.996094 41.617187 10.707031 12.597656 29.457031 14.582031 46.191406 15.453125 29.085938 1.519531 58.652344 2.285156 87.882812 2.285156 2.3125 0 4.625-.003906 6.9375-.011718l1.988282-.011719.058594-32.023438zm0 0" fill="#ed6d66"/><path d="m115.90625 352.789062 2.261719.058594-.21875-2.25c-.539063-5.535156-.648438-11.210937-.683594-16.035156l-.785156-93.773438-1.925781-.058593c-3.625-.105469-7.144532-.199219-10.628907-.289063l-4.449219-.117187c-4.675781-.117188-9.378906-.234375-14.269531-.382813l-2.078125-.0625.910156 109.464844 1.675782.261719c9.28125 1.457031 19.253906 2.90625 30.191406 3.183593zm0 0" fill="#ed6d66"/><path d="m99.886719 236.269531c4.757812.121094 9.515625.25 14.484375.390625l2.074218.058594-1.117187-134.042969c-.078125-8.8125-.167969-18.800781 1.617187-28.625l.578126-3.1875-3.105469.90625c-11.535157 3.371094-16.847657 9.191407-23.742188 20.179688-8.671875 13.8125-8.519531 31.972656-8.398437 46.566406l.816406 97.296875 1.925781.058594c5.105469.148437 9.996094.277344 14.867188.398437zm0 0" fill="#ed6d66"/><path d="m320.054688 466.925781c-40.347657 3.113281-81.621094 4.773438-122.675782 4.945313l-1.988281.007812-.054687 33.496094 2.054687-.054688c28.105469-.75 56.453125-2.214843 84.261719-4.355468 18.003906-1.390625 36.554687-3.792969 48.167968-16.273438 4.140626-4.445312 7.238282-10.042968 9.464844-17.109375l.976563-3.105469-3.210938.53125c-6.160156 1.015626-12.320312 1.558594-16.996093 1.917969zm0 0" fill="#ffc973"/><path d="m193.359375 471.890625c-.550781 0-1.105469.003906-1.65625.011719-.535156.003906-1.074219.007812-1.613281.007812-8.753906 0-17.816406-.074218-26.9375-.230468l-2.03125-.03125-.054688 34.253906 2.015625-.011719c9.855469-.058594 20.042969-.214844 30.277344-.46875l1.945313-.050781.058593-33.480469zm0 0" fill="#ffc973"/><path d="m159.125 471.621094c-19.203125-.351563-38.394531-1.023438-57.03125-1.996094-17.582031-.921875-37.320312-3.058594-49.0625-16.878906-4.132812-4.859375-6.96875-10.792969-8.675781-18.140625l-.386719-1.671875-1.710938.132812c-.09375.007813-.183593.015625-.269531.03125-11.230469-.105468-21.902343-1.542968-31.761719-3.082031l-2.328124-.367187.140624 16.9375c.132813 15.902343 1 31.046874 9.996094 41.621093 10.703125 12.59375 29.449219 14.578125 46.179688 15.449219 28.980468 1.511719 58.527344 2.277344 87.820312 2.277344 2.335938 0 4.675782-.003906 7.011719-.015625l1.988281-.007813.058594-34.253906zm0 0" fill="#ffc973"/><path d="m40.972656 429.011719 2.296875.039062-.273437-2.28125c-.738282-6.058593-.882813-12.351562-.925782-18.246093l-.765624-91.523438-1.925782-.058594c-5.117187-.148437-10.011718-.273437-14.878906-.398437l-.902344-.019531c-4.785156-.121094-9.585937-.25-14.582031-.390626l-2.074219-.058593.921875 109.460937 1.675781.261719c9.632813 1.519531 20 3.015625 31.433594 3.214844zm-23.367187-10.992188 11.800781.441407-11.851562-.417969s.011718-.023438.050781-.023438zm0 0" fill="#ffc973"/><path d="m19.453125 312.347656 4.40625.117188c5.023437.128906 10.058594.257812 15.328125.414062l2.078125.0625-1.136719-136.304687c-.070312-8.203125-.148437-17.503907 1.273438-26.628907l.480468-3.066406-2.992187.832032c-11.976563 3.335937-17.410156 9.226562-24.394531 20.363281-8.671875 13.816406-8.519532 31.96875-8.398438 46.5625l.816406 97.304687 1.925782.054688c3.625.109375 7.136718.199218 10.613281.289062zm0 0" fill="#ffc973"/><path d="m470.59375 97.761719c-.492188-16.25-1.589844-31.925781-9.542969-45.089844-7.730469-12.796875-21.730469-22.367187-39.417969-26.949219-15.085937-3.910156-30.617187-3.921875-45.667968-3.855468-.632813-2.972657-1.894532-5.632813-4.382813-7.132813-1.226562-.738281-2.421875-1.144531-3.574219-1.296875-.363281-.316406-.78125-.585938-1.261718-.761719-46.691406-17.246093-100.277344-16.882812-150.894532 1.019531-.765624.222657-1.546874.5625-2.339843 1.042969-3.480469 2.09375-4.574219 6.449219-4.878907 10.769531-14.863281-.914062-30.175781-1.6875-45.257812 1.464844-18.179688 3.804688-32.644531 12.996094-40.730469 25.882813-2.378906 3.796875-4.160156 7.824219-5.488281 11.972656-16.253906 3.578125-23.457031 10.894531-31.617188 23.898437-2.785156 4.445313-4.75 9.210938-6.132812 14.113282-16.5 3.550781-23.742188 10.882812-31.960938 23.980468-2.789062 4.445313-4.75 9.210938-6.132812 14.113282-16.5 3.546875-23.742188 10.878906-31.960938 23.980468-9.605468 15.316407-9.4492182 34.457032-9.320312 49.835938l1.941406 231.886719c.140625 17.050781 1.125 33.363281 11.4375 45.496093 12.265625 14.425782 32.492188 16.636719 50.488282 17.578126 29.253906 1.527343 58.65625 2.289062 88.089843 2.289062 43.46875 0 86.992188-1.664062 130.125-4.988281 18.359375-1.414063 39.039063-4.105469 52.144531-18.183594 5.300782-5.695313 9.101563-12.9375 11.621094-22.152344.136719-.5.164063-1.003906.109375-1.492187 9.960938-2.550782 19.273438-6.832032 26.363281-14.449219 5.300782-5.695313 9.101563-12.9375 11.617188-22.152344.136719-.5.164062-1.003906.113281-1.492187 9.960938-2.550782 19.269531-6.832032 26.363281-14.449219 5.191407-5.578125 8.9375-12.660156 11.453126-21.601563 9.691406-2.574218 18.730468-6.828124 25.652343-14.269531 11.382813-12.230469 13.898438-29.632812 15.496094-46.410156 7.34375-77.015625 9.882813-155.273437 7.546875-232.597656zm-8.484375 123.90625-94.203125-.242188-.21875-12.464843 94.929688-2.914063c-.148438 5.207031-.316407 10.414063-.507813 15.621094zm-5.46875 89.886719c-14.804687 2.34375-30.085937 4.691406-44.929687 2.574218-16.109376-2.296875-29.652344-10.332031-36.226563-21.488281-6.519531-11.0625-6.765625-25.09375-6.980469-37.476563l-.523437-29.707031 93.984375.242188c-1.113282 28.691406-2.890625 57.34375-5.324219 85.855469zm-88.210937-277.425782c.285156 17.117188-.46875 35.347656-2.316407 55.722656-1.9375 21.425782-5.125 42.949219-9.46875 63.96875v.003907c-1.074219 5.203125-2.519531 6.023437-3.089843 6.136719-1.164063.222656-3.253907-1.195313-4.378907-1.960938l-50.269531-34.136719c9.902344-15.675781 54.75-85.6875 60.402344-93.957031.207031-.300781.433594-.640625.675781-1 4.625-6.921875 6.597656-7.773438 7.378906-7.300781.875.824219 1.246094 4.226562 1.097657 10.105469-.023438.941406-.042969 1.765624-.03125 2.417968zm-92.070313 357.707032.433594-251.851563 15.753906-10.699219 14.488281 9.839844-.4375 252.242188c-10.078125.246093-20.15625.402343-30.238281.46875zm-37.105469 35.871093.046875-27.96875c8.65625.132813 17.316407.207031 25.980469.207031 1.421875 0 2.839844-.015624 4.257812-.019531l-.046874 27.308594c-10.078126.246094-20.15625.40625-30.238282.472656zm-38.09375 38.089844.050782-30.203125c8.980468.140625 17.96875.21875 26.960937.21875 1.089844 0 2.183594-.011719 3.277344-.015625l-.050781 29.53125c-10.078126.246094-20.15625.402344-30.238282.46875zm-192.199218-147.667969c5 .144532 9.796874.265625 14.585937.386719 5.160156.132813 10.339844.269531 15.769531.425781l.75 89.601563c.054688 6.316406.222656 12.527343.9375 18.464843-11.128906-.183593-21.324218-1.640624-31.160156-3.1875zm131.542968 107.34375c-16.316406-.851562-34.578125-2.765625-44.765625-14.75-8.5625-10.074218-9.386719-24.828125-9.515625-40.339844l-.121094-14.578124c9.445313 1.46875 19.882813 2.898437 31.015626 3.078124 1.539062 7.835938 4.363281 15.050782 9.585937 21.191407 12.261719 14.429687 32.488281 16.640625 50.488281 17.578125 19.304688 1.011718 38.675782 1.679687 58.078125 2.019531l-.050781 28.066406c-31.640625.128907-63.269531-.625-94.714844-2.265625zm-18.085937-199.632812 92.503906-.480469c.378906 0 .726563-.113281 1.03125-.296875l-.53125 30.101562c-.21875 12.382813-.464844 26.417969-6.984375 37.476563-6.574219 11.15625-20.117188 19.191406-36.226562 21.488281-13.933594 1.984375-33.828126-.078125-49.074219-2.371094zm93.59375-4.183594c-.316407-.203125-.695313-.328125-1.097657-.328125-.003906 0-.007812 0-.011718 0l-92.515625.476563-.132813-15.726563 93.980469 2.882813zm-100.746094 112.925781c.046875 5.519531.1875 10.960938.699219 16.207031-10.640625-.265624-20.453125-1.664062-29.933594-3.15625l-.882812-105.691406c5 .144532 9.796874.269532 14.585937.390625 4.84375.125 9.699219.25 14.761719.394531zm-37.105469 35.867188c.054688 6.316406.222656 12.527343.9375 18.464843-11.128906-.183593-21.324218-1.640624-31.160156-3.1875l-.882812-105.691406c5 .144532 9.796874.265625 14.585937.386719 5.160156.132813 10.339844.265625 15.769531.425781zm1.898438 26.554687h.035156c.136719 0 .269531-.027344.402344-.039062 1.625 6.980468 4.378906 13.421875 9.101562 18.980468 12.261719 14.429688 32.492188 16.636719 50.488282 17.578126 18.980468.992187 38.023437 1.65625 57.09375 2.003906l-.050782 30.300781c-31.640625.132813-63.269531-.621094-94.714844-2.261719-16.316406-.851562-34.578124-2.765625-44.765624-14.75-8.5625-10.074218-9.386719-24.828125-9.519532-40.339844l-.121094-14.578124c9.734376 1.515624 20.515626 3 32.050782 3.105468zm110.027344 76.902344c1.089843 0 2.179687-.011719 3.269531-.015625l-.050781 29.53125c-10.074219.246094-20.15625.402344-30.238282.46875l.054688-30.207031c8.980468.144531 17.96875.222656 26.964844.222656zm26.546874-442.195312c-.148437-5.878907.21875-9.28125 1.039063-10.070313.125-.074219.273437-.117187.457031-.117187 1.027344 0 3.042969 1.488281 6.980469 7.382812.242187.363281.46875.699219.671875 1 5.652344 8.269531 50.5 78.28125 60.40625 93.957031l-50.269531 34.136719c-1.125.765625-3.222657 2.179688-4.378907 1.960938-.570312-.113282-2.015624-.933594-3.09375-6.140626-4.34375-21.015624-7.527343-42.539062-9.46875-63.96875-1.84375-20.382812-2.601562-38.609374-2.3125-55.722656.007813-.652344-.011718-1.476562-.03125-2.417968zm101.613282-4.996094.28125 12.457031-43.363282 4.089844c-.765624.074219-3.101562.292969-3.710937-.59375-.304687-.4375-.328125-1.34375-.34375-2.074219l-.375-14.464844c15.804687-1.496094 31.742187-1.300781 47.511719.585938zm-51.535156-.171875.367187 14.15625c.03125 1.195312.074219 2.835937 1.058594 4.261719 1.402343 2.03125 3.769531 2.417968 5.59375 2.417968.71875 0 1.355469-.058594 1.8125-.101562l45.234375-4.269532c1.050781-.097656 1.847656-.992187 1.824218-2.050781l-.308593-13.726562c8.546875 1.179687 17.035156 2.855469 25.417969 5.03125.121093.03125.242187.046875.359374.058593-6.628906 10.1875-18.648437 28.859376-28.808593 44.6875-7.484375 11.664063-14.796875 23.085938-20.234375 31.613282-2.6875 4.214844-4.914063 7.71875-6.480469 10.203125-1.566406-2.484375-3.792969-5.988281-6.484375-10.203125-5.433594-8.527344-12.746094-19.949219-20.230469-31.613282-10.265625-15.996093-22.429687-34.886718-29.015625-45 9.847656-2.507812 19.839844-4.328124 29.894532-5.464843zm91.339843-8.359375c-2.046875 2.171875-3.679687 4.609375-4.769531 6.242187-.226562.335938-.433594.648438-.625.929688-.503906.738281-1.425781 2.128906-2.660156 4.019531-.257813-.484375-.699219-.863281-1.269532-1.011719-37.402343-9.714843-76.863281-9.675781-114.238281.085938-.929687-1.417969-1.636719-2.484375-2.050781-3.09375-.191406-.277344-.398438-.589844-.625-.925781-1.050781-1.578126-2.609375-3.90625-4.5625-6.023438 44.09375-13.703125 89.976562-13.789062 130.800781-.222656zm-193.027343 16.683594c14.195312-2.96875 29.105468-2.175782 43.578124-1.28125v.40625c-.292968 17.40625.472657 35.914062 2.34375 56.585937 1.96875 21.734375 5.199219 43.558594 9.605469 64.875.5625 2.726563 2.277344 11.023437 9.445313 12.417969.621094.125 1.230468.175781 1.824218.175781 3.648438 0 6.695313-2.066406 8.625-3.378906l32.3125-21.945313-.429687 249.144532c-31.644531.128906-63.273437-.625-94.71875-2.265626-16.316406-.851562-34.578125-2.765624-44.765625-14.75-8.5625-10.070312-9.386719-24.828124-9.515625-40.339843l-.121094-14.59375c10.984375 1.617187 24.144531 3.0625 36.023438 3.0625 5.023437 0 9.816406-.257813 14.117187-.871094 18.792969-2.679687 34.113282-11.929687 42.035156-25.375 7.597657-12.890625 7.875-28.714844 8.097657-41.429687l.882812-50.179688c.039063-2.207031-1.699219-4.035156-3.90625-4.101562l-98.273437-3.015626-.796875-95.378906c-.121094-14.332031-.269531-32.164062 8.089843-45.488281 6.8125-10.855469 19.769532-18.972656 35.546876-22.273437zm-72.652344 58.144531c6.65625-10.609375 11.691406-16.128907 22.601562-19.324219-1.804687 9.949219-1.722656 20.105469-1.648437 29.007812l1.105469 131.964844c-4.964844-.144531-9.734376-.265625-14.492188-.390625-4.871094-.125-9.757812-.25-14.855469-.398437l-.800781-95.375c-.117188-14.328125-.269531-32.160156 8.089844-45.484375zm-38.09375 38.09375c6.78125-10.8125 11.894531-16.335938 23.246094-19.5-1.449219 9.285156-1.375 18.667969-1.304688 26.957031l1.125 134.21875c-5.332031-.15625-10.421875-.285156-15.496094-.414062-4.875-.125-9.761718-.253907-14.859375-.402344l-.800781-95.375c-.117188-14.328125-.269531-32.160156 8.089844-45.484375zm-38.09375 38.09375c6.785156-10.8125 11.894531-16.335938 23.246094-19.5-1.449219 9.285156-1.371094 18.667969-1.300782 26.957031l1.121094 134.21875c-5.332031-.15625-10.421875-.289062-15.496094-.417969-4.875-.125-9.761718-.25-14.859375-.398437l-.796875-95.375c-.121094-14.328125-.269531-32.164063 8.085938-45.484375zm48.136718 332.460937c-16.316406-.855468-34.578124-2.769531-44.765624-14.75-8.5625-10.074218-9.386719-24.832031-9.515626-40.339844l-.125-14.578124c9.734376 1.515624 20.515626 3 32.050782 3.105468h.039062c.136719 0 .265625-.027344.398438-.039062 1.625 6.980468 4.378906 13.421875 9.101562 18.980468 12.265625 14.425782 32.492188 16.636719 50.488282 17.578126 18.980468.992187 38.023437 1.652343 57.097656 2.003906l-.054688 30.300781c-31.640625.132813-63.269531-.621094-94.714844-2.261719zm264.039063-18.328125c-11.128906 11.957031-29.253906 14.28125-46.863281 15.640625-27.929688 2.152344-56.023438 3.597656-84.15625 4.351563l.050781-29.453125c41.035156-.175782 82.101563-1.816406 122.820313-4.953125 5.597656-.429688 11.414062-.984375 17.167968-1.941407-2.132812 6.761719-5.089844 12.136719-9.019531 16.355469zm38.09375-38.089843c-11.128906 11.953124-29.253906 14.277343-46.863281 15.636718-27.933594 2.152344-56.023438 3.597656-84.160156 4.351563l.050781-29.449219c41.035156-.179688 82.101562-1.820312 122.820312-4.957031 5.601563-.429688 11.417969-.984375 17.171875-1.941407-2.132812 6.761719-5.09375 12.136719-9.019531 16.359376zm38.09375-38.09375c-11.128906 11.953124-29.253906 14.28125-46.863281 15.636718-27.933594 2.152344-56.027344 3.597656-84.160156 4.351563l.046874-27.230469c40.710938-.199219 81.445313-1.839844 121.835938-4.949219 5.679688-.441406 11.582031-1 17.414062-1.980469-2.0625 5.738282-4.78125 10.417969-8.273437 14.171876zm37.105469-35.871094c-11.132813 11.957031-29.253906 14.28125-46.863282 15.640625-27.933593 2.152343-56.023437 3.597656-84.160156 4.347656l.429688-249.40625 33.585937 22.808594c1.929688 1.3125 4.976563 3.382812 8.625 3.382812.59375 0 1.203125-.054687 1.828125-.175781 7.167969-1.398438 8.878906-9.695312 9.445313-12.421875h-.003907c4.40625-21.316406 7.640626-43.144531 9.605469-64.875 1.871094-20.664063 2.636719-39.175781 2.34375-56.585937-.007812-.558594.011719-1.269532.03125-2.078126.015625-.628906.03125-1.296874.042969-1.984374 14.359375-.0625 29.144531-.003907 43.046875 3.597656 15.636719 4.050781 27.902344 12.332031 34.539063 23.316406 6.953124 11.503906 7.910156 25.449219 8.386718 41.164062 1.003906 33.207032 1.097656 66.585938.300782 99.96875l-99.371094 3.046876c-2.207032.070312-3.949219 1.894531-3.910156 4.101562l.886718 50.183594c.222656 12.710937.5 28.535156 8.097656 41.425781 7.921876 13.445313 23.242188 22.695313 42.035157 25.375 4.515625.644531 9.019531.914063 13.503906.914063 10.761719 0 21.410156-1.550782 31.839844-3.191407-.292969 3.253907-.582031 6.511719-.894531 9.761719-1.527344 16.039062-3.703126 31.296875-13.371094 41.683594zm0 0"/><path d="m288.640625 181.453125c1.121094.320313 2.265625.480469 3.394531.480469 1.914063 0 3.777344-.460938 5.386719-1.355469 4.082031-2.277344 6.210937-6.355469 5.695313-10.910156-.550782-4.898438-4.097657-9.117188-8.828126-10.5-4.199218-1.226563-8.566406.195312-11.386718 3.710937-3.058594 3.8125-3.546875 8.984375-1.242188 13.171875 1.40625 2.566407 3.953125 4.53125 6.980469 5.402344zm-2.59375-16.050781c1.808594-2.253906 4.464844-3.140625 7.113281-2.363282 3.1875.929688 5.578125 3.777344 5.949219 7.082032.332031 2.925781-1 5.457031-3.652344 6.933594-1.625.90625-3.703125 1.09375-5.707031.523437-2-.578125-3.664062-1.839844-4.558594-3.46875-1.511718-2.753906-1.179687-6.171875.855469-8.707031zm0 0"/><path d="m288.640625 226.738281c1.121094.320313 2.265625.480469 3.394531.480469 1.914063 0 3.777344-.460938 5.386719-1.355469 4.082031-2.277343 6.210937-6.355469 5.695313-10.90625-.550782-4.902343-4.097657-9.121093-8.828126-10.503906-4.199218-1.226563-8.566406.195313-11.386718 3.710937-3.058594 3.8125-3.546875 8.984376-1.242188 13.175782 1.40625 2.558594 3.953125 4.527344 6.980469 5.398437zm-2.59375-16.050781c1.808594-2.253906 4.464844-3.136719 7.113281-2.363281 3.1875.929687 5.578125 3.777343 5.949219 7.082031.332031 2.929688-1 5.457031-3.652344 6.933594-1.625.90625-3.703125 1.09375-5.707031.523437-2-.578125-3.664062-1.839843-4.558594-3.46875-1.511718-2.753906-1.179687-6.171875.855469-8.707031zm0 0"/><path d="m288.640625 272.019531c1.121094.324219 2.265625.480469 3.394531.480469 1.914063 0 3.777344-.457031 5.382813-1.351562 4.082031-2.277344 6.210937-6.355469 5.699219-10.910157-.550782-4.898437-4.101563-9.121093-8.828126-10.5-4.203124-1.226562-8.566406.195313-11.386718 3.710938-3.058594 3.8125-3.546875 8.980469-1.242188 13.171875 1.410156 2.5625 3.953125 4.53125 6.980469 5.398437zm-2.59375-16.046875c1.808594-2.253906 4.464844-3.136718 7.113281-2.363281 3.1875.929687 5.578125 3.777344 5.949219 7.082031.332031 2.929688-1 5.453125-3.652344 6.933594-1.625.90625-3.703125 1.09375-5.703125.523438-2.003906-.578126-3.664062-1.839844-4.5625-3.46875-1.511718-2.753907-1.179687-6.171876.855469-8.707032zm0 0"/><path d="m288.640625 317.304688c1.121094.324218 2.265625.480468 3.394531.480468 1.914063 0 3.777344-.457031 5.382813-1.351562 4.082031-2.277344 6.210937-6.355469 5.699219-10.910156-.550782-4.898438-4.101563-9.121094-8.828126-10.5-4.203124-1.226563-8.566406.195312-11.386718 3.710937-3.058594 3.8125-3.546875 8.980469-1.242188 13.171875 1.410156 2.5625 3.953125 4.53125 6.980469 5.398438zm-2.59375-16.046876c1.808594-2.253906 4.464844-3.140624 7.113281-2.367187 3.1875.933594 5.578125 3.777344 5.949219 7.085937.332031 2.925782-1 5.453126-3.652344 6.933594-1.625.90625-3.703125 1.09375-5.703125.519532-2.003906-.574219-3.664062-1.835938-4.5625-3.464844-1.511718-2.753906-1.179687-6.171875.855469-8.707032zm0 0"/><path d="m294.289062 340.308594c-4.203124-1.226563-8.566406.195312-11.386718 3.710937-3.058594 3.8125-3.546875 8.984375-1.242188 13.171875 1.410156 2.5625 3.953125 4.53125 6.980469 5.398438 1.121094.324218 2.265625.480468 3.394531.480468 1.914063 0 3.777344-.457031 5.386719-1.351562 4.082031-2.277344 6.210937-6.355469 5.695313-10.910156-.554688-4.898438-4.101563-9.121094-8.828126-10.5zm1.167969 17.886718c-1.625.90625-3.703125 1.09375-5.703125.519532-2.003906-.574219-3.664062-1.835938-4.5625-3.464844-1.511718-2.753906-1.179687-6.171875.855469-8.707031 1.808594-2.253907 4.464844-3.136719 7.113281-2.363281 3.1875.929687 5.578125 3.777343 5.949219 7.082031.332031 2.925781-1 5.453125-3.652344 6.933593zm0 0"/><path d="m206.453125 247.207031h.019531c1.105469 0 2.003906-.886719 2.015625-1.992187l.117188-11.015625c.011719-1.113281-.882813-2.023438-1.996094-2.035157-.007813 0-.015625 0-.023437 0-1.101563 0-2 .886719-2.015626 1.992188l-.113281 11.015625c-.011719 1.113281.882813 2.023437 1.996094 2.035156zm0 0"/><path d="m203.730469 269.699219c.09375.011719.1875.019531.28125.019531.992187 0 1.851562-.730469 1.996093-1.738281l1.589844-11.429688c.15625-1.101562-.617187-2.121093-1.71875-2.273437-1.105468-.15625-2.121094.613281-2.273437 1.71875l-1.59375 11.425781c-.152344 1.105469.617187 2.125 1.71875 2.277344zm0 0"/><path d="m196.511719 291.636719c.503906 0 1.007812-.1875 1.398437-.5625 3.332032-3.207031 5.398438-7.691407 5.667969-12.304688.066406-1.109375-.78125-2.0625-1.894531-2.128906-1.109375-.066406-2.0625.78125-2.128906 1.894531-.210938 3.613282-1.828126 7.125-4.4375 9.632813-.804688.773437-.828126 2.046875-.054688 2.851562.394531.410157.921875.617188 1.449219.617188zm0 0"/><path d="m180.21875 307.140625c.238281 0 .480469-.042969.714844-.132813 3.984375-1.515624 7.492187-4.296874 9.878906-7.828124.625-.921876.382812-2.175782-.539062-2.796876-.921876-.625-2.175782-.382812-2.800782.539063-1.925781 2.851563-4.757812 5.09375-7.96875 6.316406-1.042968.398438-1.566406 1.5625-1.167968 2.601563.304687.804687 1.070312 1.300781 1.882812 1.300781zm0 0"/><path d="m170.433594 305.242188c-.109375-1.109376-1.101563-1.925782-2.203125-1.808594l-13.453125 1.34375c-1.105469.109375-1.914063 1.097656-1.804688 2.203125.105469 1.042969.980469 1.816406 2.003906 1.816406.066407 0 .132813 0 .199219-.007813l13.453125-1.339843c1.105469-.113281 1.917969-1.101563 1.804688-2.207031zm0 0"/><path d="m142.769531 304.371094-11.832031-.40625c-1.085938-.066406-2.046875.832031-2.085938 1.945312-.039062 1.109375.832032 2.046875 1.945313 2.085938l11.832031.40625c.023438.003906.046875.003906.070313.003906 1.082031 0 1.976562-.859375 2.015625-1.949219.039062-1.113281-.832032-2.046875-1.945313-2.085937zm0 0"/><path d="m376.496094 247.207031h.023437c1.113281-.011719 2.003907-.921875 1.992188-2.035156l-.117188-11.015625c-.011719-1.105469-.910156-1.992188-2.011719-1.992188-.007812 0-.015624 0-.023437 0-1.113281.011719-2.007813.921876-1.996094 2.035157l.117188 11.015625c.011719 1.105468.914062 1.992187 2.015625 1.992187zm0 0"/><path d="m377.089844 254.277344c-1.105469.15625-1.871094 1.171875-1.71875 2.277344l1.59375 11.425781c.140625 1.011719 1.003906 1.738281 1.992187 1.738281.09375 0 .1875-.003906.28125-.019531 1.101563-.152344 1.871094-1.171875 1.71875-2.273438l-1.59375-11.429687c-.152343-1.101563-1.171875-1.875-2.273437-1.71875zm0 0"/><path d="m379.390625 278.769531c.269531 4.613281 2.335937 9.097657 5.667969 12.304688.390625.375.894531.5625 1.398437.5625.527344 0 1.054688-.207031 1.453125-.617188.769532-.800781.746094-2.078125-.054687-2.851562-2.609375-2.507813-4.226563-6.019531-4.441407-9.632813-.0625-1.109375-1.011718-1.964844-2.128906-1.894531-1.113281.066406-1.960937 1.019531-1.894531 2.128906zm0 0"/><path d="m402.035156 307.007812c.234375.089844.476563.132813.714844.132813.8125 0 1.578125-.496094 1.886719-1.300781.394531-1.039063-.128907-2.203125-1.167969-2.597656-3.214844-1.226563-6.046875-3.46875-7.972656-6.320313-.625-.917969-1.875-1.160156-2.800782-.539063-.921874.621094-1.164062 1.875-.539062 2.796876 2.386719 3.53125 5.894531 6.3125 9.878906 7.828124zm0 0"/><path d="m414.339844 307.449219 13.453125 1.339843c.066406.007813.132812.007813.203125.007813 1.019531 0 1.898437-.773437 2-1.816406.109375-1.105469-.695313-2.09375-1.804688-2.203125l-13.453125-1.34375c-1.105469-.113282-2.09375.699218-2.207031 1.808594-.105469 1.105468.703125 2.09375 1.808594 2.207031zm0 0"/><path d="m440.269531 308.402344h.070313l11.832031-.410156c1.113281-.035157 1.980469-.972657 1.945313-2.082032-.039063-1.113281-.976563-2-2.085938-1.945312l-11.832031.40625c-1.113281.039062-1.980469.972656-1.945313 2.085937.039063 1.089844.933594 1.945313 2.015625 1.945313zm0 0"/><path d="m91.746094 341.78125c-.035156 1.109375.835937 2.042969 1.945312 2.082031l11.832032.40625c.023437.003907.046874.003907.070312.003907 1.082031 0 1.976562-.859376 2.011719-1.949219.039062-1.109375-.832031-2.042969-1.941407-2.082031l-11.832031-.410157c-1.121093-.070312-2.046875.832031-2.085937 1.949219zm0 0"/><path d="m53.652344 379.871094c-.035156 1.113281.835937 2.046875 1.945312 2.085937l11.832032.40625c.023437.003907.046874.003907.070312.003907 1.082031 0 1.976562-.859376 2.015625-1.949219.035156-1.113281-.835937-2.042969-1.945313-2.082031l-11.832031-.410157c-1.117187-.050781-2.046875.832031-2.085937 1.945313zm0 0"/><path d="m29.476562 416.425781-11.832031-.40625c-1.109375-.019531-2.042969.832031-2.082031 1.945313-.039062 1.113281.832031 2.046875 1.945312 2.085937l11.832032.40625h.070312c1.078125 0 1.972656-.855469 2.011719-1.945312.039063-1.113281-.832031-2.046875-1.945313-2.085938zm0 0"/></svg>